<svg xmlns="http://www.w3.org/2000/svg" width="692" height="680" viewBox="0 0 692 680">
<rect width="100%" height="100%" fill="#f6f8fa"/>
<rect x="40" y="40" width="612.0" height="600.0" fill="none" stroke="#64748b" stroke-width="2"/>
<text x="40" y="24" font-family="sans-serif" font-size="16" fill="#17202d">CubOS static render fallback: deck XY, labware AABBs, TCP path</text>
<rect x="449.8" y="21.8" width="72.4" height="600.4" fill="#bf7a30" fill-opacity="0.22" stroke="#bf7a30" stroke-width="1"/>
<text x="449.8" y="17.8" font-family="sans-serif" font-size="9" fill="#334155">vial_holder</text>
<rect x="458.0" y="93.0" width="56.0" height="56.0" fill="#bf7a30" fill-opacity="0.22" stroke="#bf7a30" stroke-width="1"/>
<text x="458.0" y="89.0" font-family="sans-serif" font-size="9" fill="#334155">vial_holder.vial_8</text>
<rect x="458.0" y="160.0" width="56.0" height="56.0" fill="#bf7a30" fill-opacity="0.22" stroke="#bf7a30" stroke-width="1"/>
<text x="458.0" y="156.0" font-family="sans-serif" font-size="9" fill="#334155">vial_holder.vial_7</text>
<rect x="458.0" y="227.0" width="56.0" height="56.0" fill="#bf7a30" fill-opacity="0.22" stroke="#bf7a30" stroke-width="1"/>
<text x="458.0" y="223.0" font-family="sans-serif" font-size="9" fill="#334155">vial_holder.vial_6</text>
<rect x="458.0" y="294.0" width="56.0" height="56.0" fill="#bf7a30" fill-opacity="0.22" stroke="#bf7a30" stroke-width="1"/>
<text x="458.0" y="290.0" font-family="sans-serif" font-size="9" fill="#334155">vial_holder.vial_5</text>
<rect x="458.0" y="361.0" width="56.0" height="56.0" fill="#bf7a30" fill-opacity="0.22" stroke="#bf7a30" stroke-width="1"/>
<text x="458.0" y="357.0" font-family="sans-serif" font-size="9" fill="#334155">vial_holder.vial_4</text>
<rect x="458.0" y="428.0" width="56.0" height="56.0" fill="#bf7a30" fill-opacity="0.22" stroke="#bf7a30" stroke-width="1"/>
<text x="458.0" y="424.0" font-family="sans-serif" font-size="9" fill="#334155">vial_holder.vial_3</text>
<rect x="458.0" y="495.0" width="56.0" height="56.0" fill="#bf7a30" fill-opacity="0.22" stroke="#bf7a30" stroke-width="1"/>
<text x="458.0" y="491.0" font-family="sans-serif" font-size="9" fill="#334155">vial_holder.vial_2</text>
<rect x="458.0" y="562.0" width="56.0" height="56.0" fill="#bf7a30" fill-opacity="0.22" stroke="#bf7a30" stroke-width="1"/>
<text x="458.0" y="558.0" font-family="sans-serif" font-size="9" fill="#334155">vial_holder.vial_1</text>
<polyline points="652.0,40.0 652.0,40.0 652.0,40.0 652.0,40.0 652.0,40.0 652.0,40.0 652.0,40.0 652.0,40.0 652.0,40.0 652.0,40.0 652.0,40.0 652.0,40.0 652.0,40.0 644.6,45.7 637.1,51.4 629.7,57.1 622.3,62.9 614.9,68.6 607.4,74.3 600.0,80.0 600.0,80.0 600.0,80.0 597.8,89.6 595.7,99.2 593.5,108.9 591.4,118.5 589.2,128.1 587.1,137.7 584.9,147.4 582.8,157.0 580.6,166.6 578.5,176.2 576.3,185.8 574.2,195.5 572.0,205.1 569.9,214.7 567.7,224.3 565.6,234.0 563.4,243.6 561.3,253.2 559.1,262.8 557.0,272.5 554.8,282.1 552.7,291.7 550.5,301.3 548.4,310.9 546.2,320.6 544.1,330.2 541.9,339.8 539.8,349.4 537.6,359.1 535.5,368.7 533.3,378.3 531.2,387.9 529.0,397.5 526.9,407.2 524.7,416.8 522.6,426.4 520.4,436.0 518.3,445.7 516.1,455.3 514.0,464.9 511.8,474.5 509.7,484.2 507.5,493.8 505.4,503.4 503.2,513.0 501.1,522.6 498.9,532.3 496.8,541.9 494.6,551.5 492.5,561.1 490.3,570.8 488.2,580.4 486.0,590.0 486.0,590.0 486.0,590.0 486.0,590.0 486.0,590.0 486.0,590.0 486.0,590.0 486.0,590.0 486.0,590.0 486.0,590.0 486.0,590.0 486.0,590.0 486.0,590.0 486.0,590.0 486.0,590.0 486.0,590.0 486.0,590.0 486.0,590.0 486.0,590.0 486.0,580.0 486.0,570.0 486.0,560.1 486.0,550.1 486.0,540.1 486.0,530.1 486.0,520.1 486.0,510.2 486.0,500.2 486.0,490.2 486.0,480.2 486.0,470.3 486.0,460.3 486.0,450.3 486.0,440.3 486.0,430.3 486.0,420.4 486.0,410.4 486.0,400.4 486.0,390.4 486.0,380.4 486.0,370.5 486.0,360.5 486.0,350.5 486.0,340.5 486.0,330.6 486.0,320.6 486.0,310.6 486.0,300.6 486.0,290.6 486.0,280.7 486.0,270.7 486.0,260.7 486.0,250.7 486.0,240.7 486.0,230.8 486.0,220.8 486.0,210.8 486.0,200.8 486.0,190.9 486.0,180.9 486.0,170.9 486.0,160.9 486.0,150.9 486.0,141.0 486.0,131.0 486.0,121.0 486.0,121.0 486.0,121.0 486.0,121.0 486.0,121.0 486.0,121.0 486.0,121.0 486.0,121.0 486.0,121.0 486.0,121.0 486.0,121.0 486.0,121.0 486.0,121.0 486.0,121.0 486.0,121.0 486.0,121.0 486.0,121.0 486.0,121.0 486.0,121.0 486.0,130.8 486.0,140.6 486.0,150.4 486.0,160.2 486.0,170.0 486.0,179.8 486.0,189.6 486.0,199.4 486.0,209.2 486.0,219.0 486.0,228.9 486.0,238.7 486.0,248.5 486.0,258.3 486.0,268.1 486.0,277.9 486.0,287.7 486.0,297.5 486.0,307.3 486.0,317.1 486.0,326.9 486.0,336.7 486.0,346.5 486.0,356.3 486.0,366.1 486.0,375.9 486.0,385.7 486.0,395.5 486.0,405.3 486.0,415.1 486.0,425.0 486.0,434.8 486.0,444.6 486.0,454.4 486.0,464.2 486.0,474.0 486.0,483.8 486.0,493.6 486.0,503.4 486.0,513.2 486.0,523.0 486.0,523.0 486.0,523.0 486.0,523.0 486.0,523.0 486.0,523.0 486.0,523.0 486.0,523.0 486.0,523.0 486.0,523.0 486.0,523.0 486.0,523.0 486.0,523.0 486.0,523.0 486.0,523.0 486.0,523.0 486.0,523.0 486.0,523.0 486.0,523.0 486.0,513.1 486.0,503.3 486.0,493.4 486.0,483.6 486.0,473.7 486.0,463.9 486.0,454.0 486.0,444.2 486.0,434.3 486.0,424.5 486.0,414.6 486.0,404.8 486.0,394.9 486.0,385.1 486.0,375.2 486.0,365.4 486.0,355.5 486.0,345.6 486.0,335.8 486.0,325.9 486.0,316.1 486.0,306.2 486.0,296.4 486.0,286.5 486.0,276.7 486.0,266.8 486.0,257.0 486.0,247.1 486.0,237.3 486.0,227.4 486.0,217.6 486.0,207.7 486.0,197.9 486.0,188.0 486.0,188.0 486.0,188.0 486.0,188.0 486.0,188.0 486.0,188.0 486.0,188.0 486.0,188.0 486.0,188.0 486.0,188.0 486.0,188.0 486.0,188.0 486.0,188.0 486.0,188.0 486.0,188.0 486.0,188.0 486.0,188.0 486.0,188.0 486.0,188.0 486.0,197.9 486.0,207.9 486.0,217.8 486.0,227.7 486.0,237.6 486.0,247.6 486.0,257.5 486.0,267.4 486.0,277.3 486.0,287.3 486.0,297.2 486.0,307.1 486.0,317.0 486.0,327.0 486.0,336.9 486.0,346.8 486.0,356.7 486.0,366.7 486.0,376.6 486.0,386.5 486.0,396.4 486.0,406.4 486.0,416.3 486.0,426.2 486.0,436.1 486.0,446.1 486.0,456.0 486.0,456.0 486.0,456.0 486.0,456.0 486.0,456.0 486.0,456.0 486.0,456.0 486.0,456.0 486.0,456.0 486.0,456.0 486.0,456.0 486.0,456.0 486.0,456.0 486.0,456.0 486.0,456.0 486.0,456.0 486.0,456.0 486.0,456.0 486.0,456.0 486.0,446.4 486.0,436.9 486.0,427.3 486.0,417.7 486.0,408.1 486.0,398.6 486.0,389.0 486.0,379.4 486.0,369.9 486.0,360.3 486.0,350.7 486.0,341.1 486.0,331.6 486.0,322.0 486.0,312.4 486.0,302.9 486.0,293.3 486.0,283.7 486.0,274.1 486.0,264.6 486.0,255.0 486.0,255.0 486.0,255.0 486.0,255.0 486.0,255.0 486.0,255.0 486.0,255.0 486.0,255.0 486.0,255.0 486.0,255.0 486.0,255.0 486.0,255.0 486.0,255.0 486.0,255.0 486.0,255.0 486.0,255.0 486.0,255.0 486.0,255.0 486.0,255.0 486.0,264.6 486.0,274.1 486.0,283.7 486.0,293.3 486.0,302.9 486.0,312.4 486.0,322.0 486.0,331.6 486.0,341.1 486.0,350.7 486.0,360.3 486.0,369.9 486.0,379.4 486.0,389.0 486.0,389.0 486.0,389.0 486.0,389.0 486.0,389.0 486.0,389.0 486.0,389.0 486.0,389.0 486.0,389.0 486.0,389.0 486.0,389.0 486.0,389.0 486.0,389.0 486.0,389.0 486.0,389.0 486.0,389.0 486.0,389.0 486.0,389.0 486.0,389.0 486.0,379.4 486.0,369.9 486.0,360.3 486.0,350.7 486.0,341.1 486.0,331.6 486.0,322.0 486.0,322.0 486.0,322.0 486.0,322.0 486.0,322.0 486.0,322.0 486.0,322.0 486.0,322.0 486.0,322.0 486.0,322.0 486.0,322.0 486.0,322.0 486.0,322.0 486.0,322.0 486.0,322.0 486.0,322.0 486.0,322.0 486.0,322.0 486.0,322.0 490.2,313.0 494.4,304.1 498.7,295.1 502.9,286.1 507.1,277.2 511.3,268.2 515.6,259.3 519.8,250.3 524.0,241.3 528.2,232.4 532.4,223.4 536.7,214.4 540.9,205.5 545.1,196.5 549.3,187.6 553.6,178.6 557.8,169.6 562.0,160.7 566.2,151.7 570.4,142.7 574.7,133.8 578.9,124.8 583.1,115.9 587.3,106.9 591.6,97.9 595.8,89.0 600.0,80.0 600.0,80.0 604.0,76.9 608.0,73.8 612.0,70.8 616.0,67.7 620.0,64.6 624.0,61.5 628.0,58.5 632.0,55.4 636.0,52.3 640.0,49.2 644.0,46.2 648.0,43.1 652.0,40.0" fill="none" stroke="#111827" stroke-width="2" stroke-opacity="0.75"/>
<circle cx="652.0" cy="40.0" r="2.5" fill="#d24938"/>
<circle cx="597.8" cy="89.6" r="2.5" fill="#d24938"/>
<circle cx="550.5" cy="301.3" r="2.5" fill="#d24938"/>
<circle cx="503.2" cy="513.0" r="2.5" fill="#d24938"/>
<circle cx="486.0" cy="590.0" r="2.5" fill="#d24938"/>
<circle cx="486.0" cy="410.4" r="2.5" fill="#d24938"/>
<circle cx="486.0" cy="190.9" r="2.5" fill="#d24938"/>
<circle cx="486.0" cy="121.0" r="2.5" fill="#d24938"/>
<circle cx="486.0" cy="307.3" r="2.5" fill="#d24938"/>
<circle cx="486.0" cy="523.0" r="2.5" fill="#d24938"/>
<circle cx="486.0" cy="483.6" r="2.5" fill="#d24938"/>
<circle cx="486.0" cy="266.8" r="2.5" fill="#d24938"/>
<circle cx="486.0" cy="188.0" r="2.5" fill="#d24938"/>
<circle cx="486.0" cy="366.7" r="2.5" fill="#d24938"/>
<circle cx="486.0" cy="456.0" r="2.5" fill="#d24938"/>
<circle cx="486.0" cy="293.3" r="2.5" fill="#d24938"/>
<circle cx="486.0" cy="255.0" r="2.5" fill="#d24938"/>
<circle cx="486.0" cy="389.0" r="2.5" fill="#d24938"/>
<circle cx="486.0" cy="322.0" r="2.5" fill="#d24938"/>
<circle cx="524.0" cy="241.3" r="2.5" fill="#d24938"/>
<circle cx="612.0" cy="70.8" r="2.5" fill="#d24938"/>
</svg>
